<svg width="500" height="500" viewBox="0 0 500 500" fill="none" xmlns="http://www.w3.org/2000/svg">
<mask id="mask0_189_289" style="mask-type:luminance" maskUnits="userSpaceOnUse" x="39" y="147" width="369" height="206">
<path d="M407.267 147H39V352.667H407.267V147Z" fill="white"/>
</mask>
<g mask="url(#mask0_189_289)">
<path d="M158.121 203.613C161.018 206.431 161.929 209.444 160.855 212.657C160.399 214.126 159.605 215.504 158.459 216.789C157.327 218.063 156.155 219.291 154.944 220.484C154.176 221.162 153.415 221.833 152.653 222.504C151.885 223.182 151.13 223.853 150.388 224.524C149.171 225.718 147.53 226.12 145.467 225.718C143.416 225.322 141.366 224.656 139.322 223.721C137.272 222.774 135.482 222.103 133.959 221.701C130.606 220.634 127.3 219.698 124.038 218.901C120.771 218.092 117.399 217.489 113.91 217.087C113.142 216.95 112.413 216.881 111.723 216.881C111.046 216.881 110.323 216.881 109.562 216.881C102.115 216.881 95.4629 218.855 89.6176 222.803C83.7657 226.751 79.7756 232.007 77.6405 238.572C75.3623 245.688 75.5901 252.666 78.3175 259.506C81.0579 266.335 85.7771 271.821 92.4816 275.964C97.6369 279.04 104.315 280.578 112.53 280.578C123.01 280.578 131.446 278.374 137.838 273.967C140.871 271.809 143.416 270.432 145.467 269.835C147.53 269.239 150.004 270.478 152.887 273.554C154.398 274.902 155.869 276.348 157.314 277.892C158.772 279.424 160.184 280.991 161.558 282.598C163.38 284.744 163.68 286.821 162.469 288.841C161.252 290.85 159.195 292.72 156.298 294.465C153.415 296.198 150.414 297.701 147.29 298.987C144.178 300.261 141.796 301.23 140.129 301.902C130.841 305.793 121.109 307.732 110.942 307.732C100.905 307.732 91.323 305.821 82.197 301.994C73.0841 298.172 64.9605 292.778 57.8264 285.811C51.7337 279.522 47.698 273.026 45.7192 266.323C43.7534 259.621 43.1155 253.056 43.7924 246.629C44.4824 240.19 45.7452 234.36 47.5678 229.138C51.5059 218.413 57.9175 209.834 66.8091 203.407C75.7138 196.98 86.7665 193.032 99.9803 191.563C104.387 191.149 108.494 190.943 112.296 190.943C114.431 190.943 117.542 191.184 121.643 191.654C125.757 192.131 130.164 192.871 134.87 193.881C139.589 194.879 144.074 196.176 148.331 197.783C152.582 199.39 155.843 201.335 158.121 203.613Z" fill="white"/>
<path d="M284.189 234.555C285.087 241.257 285.504 248.029 285.439 254.869C285.367 261.698 285.335 267.993 285.335 273.76C285.335 275.091 285.478 277.473 285.777 280.899C286.09 284.313 286.246 287.894 286.246 291.641C286.246 295.394 285.895 298.642 285.205 301.396C284.528 304.139 283.278 305.643 281.455 305.918C279.021 306.182 275.864 306.578 271.978 307.112C268.105 307.646 264.382 307.778 260.808 307.502C257.247 307.244 254.559 306.113 252.737 304.105C250.601 301.689 249.755 298.642 250.211 294.969C250.68 291.285 250.836 288.1 250.68 285.421C250.68 277.909 250.634 270.472 250.549 263.109C250.478 255.735 250.523 248.367 250.68 241.005C250.68 234.027 248.779 228.466 244.977 224.317C241.176 220.157 235.695 217.678 228.548 216.88C228.093 216.743 227.643 216.674 227.194 216.674C226.739 216.674 226.283 216.674 225.814 216.674C221.401 216.674 217.261 217.718 213.395 219.795C209.522 221.861 206.326 224.61 203.813 228.036C201.313 231.45 199.836 235.232 199.387 239.375C198.918 244.333 198.645 249.262 198.58 254.157C198.508 259.058 198.541 263.913 198.684 268.733C198.684 274.093 198.645 279.516 198.58 285.007C198.508 290.505 198.475 295.997 198.475 301.488C198.475 303.497 197.291 304.903 194.934 305.712C192.572 306.509 189.681 306.905 186.264 306.905C182.84 306.905 179.573 306.779 176.448 306.515C173.337 306.24 170.954 306.102 169.288 306.102C167.01 306.102 165.447 305.138 164.601 303.21C163.768 301.27 163.43 298.958 163.586 296.278C163.742 293.586 164.009 290.998 164.393 288.519C164.771 286.04 164.966 284.135 164.966 282.804C165.102 278.919 165.207 275.034 165.278 271.143C165.363 267.258 165.408 263.373 165.408 259.483C165.408 242.744 165.213 226.004 164.836 209.26C164.452 192.503 164.263 175.816 164.263 159.197C164.263 157.057 164.562 155.083 165.174 153.275C165.779 151.456 167.452 150.28 170.199 149.74C173.545 149.086 177.047 148.925 180.692 149.258C184.337 149.58 187.826 149.809 191.159 149.947C195.273 150.085 198.007 151.364 199.361 153.78C200.728 156.185 201.3 159.163 201.079 162.709C200.851 166.261 200.357 169.75 199.595 173.176C198.846 176.591 198.475 179.368 198.475 181.508V191.746C198.475 193.232 199.152 194.512 200.506 195.579C201.424 196.377 202.719 196.773 204.386 196.773C204.542 196.773 204.653 196.773 204.724 196.773C204.809 196.773 204.933 196.773 205.089 196.773C207.517 196.514 209.834 196.216 212.041 195.878C214.241 195.545 216.324 195.235 218.29 194.959C222.247 194.305 226.049 193.777 229.694 193.376C233.339 192.962 236.834 192.756 240.187 192.756C250.51 192.756 258.679 194.701 264.688 198.586C270.689 202.477 275.18 207.601 278.149 213.965C281.117 220.335 283.128 227.198 284.189 234.555Z" fill="white"/>
<path d="M398.17 302.292C396.953 303.641 395.052 304.375 392.468 304.496C390.033 304.496 387.677 304.071 385.386 303.21C383.107 302.338 380.868 301.466 378.668 300.593C376.461 299.721 374.066 299.285 371.482 299.285C369.815 299.285 368.136 299.388 366.457 299.584C364.79 299.784 363.267 300.02 361.9 300.295L360.781 300.479C356.367 301.156 352.071 302.028 347.892 303.095C343.707 304.169 339.795 305.242 336.15 306.309C334.483 306.711 332.771 307.044 331.02 307.319C329.263 307.594 327.479 307.732 325.657 307.732C314.565 307.732 305.218 303.847 297.615 296.072C288.951 287.366 285.534 276.647 287.356 263.913C288.118 258.817 290.129 254.267 293.397 250.256C296.678 246.233 300.824 243.151 305.843 241.005C308.407 239.921 311.135 239.146 314.018 238.687C316.915 238.216 319.883 237.78 322.923 237.379C323.684 237.379 324.368 237.35 324.98 237.287C325.585 237.212 326.19 237.103 326.802 236.965L356.667 233.362C360.624 232.828 363.098 231.789 364.087 230.24C365.077 228.696 365.637 227.457 365.78 226.521C366.092 224.243 365.292 222.172 363.384 220.301C361.49 218.419 359.251 217.145 356.667 216.468C351.961 214.861 347.098 214.057 342.086 214.057H341.383C336.677 214.195 332.199 214.803 327.948 215.871C323.691 216.944 319.59 218.212 315.632 219.681C314.415 220.221 312.977 220.484 311.31 220.484C307.958 220.484 304.651 219.515 301.39 217.569C298.123 215.63 295.805 213.317 294.438 210.637C293.826 209.57 293.56 208.663 293.631 207.929C293.696 207.194 293.813 206.632 293.97 206.23C294.887 204.486 296.678 202.913 299.333 201.502C301.989 200.096 304.801 198.896 307.769 197.898C310.738 196.888 313.198 196.119 315.164 195.58C326.112 192.492 337.139 190.943 348.231 190.943C349.285 190.943 350.346 190.943 351.407 190.943C352.481 190.943 353.549 191.012 354.61 191.149C359.934 191.425 365.832 192.337 372.289 193.881C378.746 195.413 384.253 198.323 388.822 202.603C394.134 207.699 397.317 212.795 398.378 217.891C399.589 223.646 400.005 229.637 399.628 235.864C399.263 242.096 399.146 248.161 399.289 254.066C399.289 260.097 399.289 266.157 399.289 272.245C399.289 278.34 399.367 284.336 399.524 290.241C399.524 292.25 399.634 294.39 399.862 296.668C400.083 298.952 399.524 300.823 398.17 302.292ZM365.103 267.724C366.313 265.583 366.698 263.775 366.248 262.306C365.793 260.826 365.337 259.816 364.868 259.277C364.257 258.485 363.306 257.716 362.004 256.981C360.716 256.235 358.939 255.799 356.667 255.673L354.844 255.466C353.471 255.328 352.065 255.26 350.626 255.26C349.181 255.26 347.632 255.26 345.966 255.26C343.375 255.26 340.25 255.501 336.592 255.971C332.947 256.43 329.458 257.67 326.125 259.69C323.834 261.296 322.383 262.972 321.777 264.717C321.165 266.186 321.1 268.062 321.569 270.34C322.623 274.489 324.674 277.703 327.714 279.981C330.747 282.265 334.392 283.401 338.649 283.401C343.974 283.401 349.22 281.863 354.376 278.787C359.544 275.7 363.124 272.01 365.103 267.724Z" fill="white"/>
</g>
<mask id="mask1_189_289" style="mask-type:luminance" maskUnits="userSpaceOnUse" x="418" y="268" width="44" height="39">
<path d="M418.119 268.569H461.334V306.661H418.119V268.569Z" fill="white"/>
</mask>
<g mask="url(#mask1_189_289)">
<mask id="mask2_189_289" style="mask-type:luminance" maskUnits="userSpaceOnUse" x="418" y="268" width="44" height="39">
<path d="M439.723 268.569C427.792 268.569 418.119 277.097 418.119 287.615C418.119 298.134 427.792 306.661 439.723 306.661C451.661 306.661 461.334 298.134 461.334 287.615C461.334 277.097 451.661 268.569 439.723 268.569Z" fill="white"/>
</mask>
<g mask="url(#mask2_189_289)">
<mask id="mask3_189_289" style="mask-type:luminance" maskUnits="userSpaceOnUse" x="417" y="267" width="46" height="41">
<path d="M462.26 267.461H417.268V307.126H462.26V267.461Z" fill="white"/>
</mask>
<g mask="url(#mask3_189_289)">
<mask id="mask4_189_289" style="mask-type:luminance" maskUnits="userSpaceOnUse" x="418" y="268" width="44" height="39">
<path d="M418.119 268.569H461.334V306.661H418.119V268.569Z" fill="white"/>
</mask>
<g mask="url(#mask4_189_289)">
<mask id="mask5_189_289" style="mask-type:luminance" maskUnits="userSpaceOnUse" x="418" y="268" width="44" height="39">
<path d="M439.723 268.569C427.792 268.569 418.119 277.097 418.119 287.615C418.119 298.134 427.792 306.661 439.723 306.661C451.661 306.661 461.334 298.134 461.334 287.615C461.334 277.097 451.661 268.569 439.723 268.569Z" fill="white"/>
</mask>
<g mask="url(#mask5_189_289)">
<path d="M418.119 268.569H461.334V306.661H418.119V268.569Z" fill="#FF8DA1"/>
</g>
</g>
</g>
</g>
</g>
</svg>
