<svg width="500" height="500" viewBox="0 0 500 500" fill="none" xmlns="http://www.w3.org/2000/svg">
<mask id="mask0_201_181" style="mask-type:luminance" maskUnits="userSpaceOnUse" x="39" y="147" width="369" height="206">
<path d="M407.267 147H39V352.667H407.267V147Z" fill="white"/>
</mask>
<g mask="url(#mask0_201_181)">
<path d="M158.117 203.613C161.014 206.431 161.925 209.444 160.851 212.657C160.395 214.126 159.601 215.504 158.455 216.789C157.323 218.063 156.151 219.291 154.94 220.484C154.172 221.162 153.411 221.833 152.649 222.504C151.881 223.182 151.126 223.853 150.384 224.524C149.167 225.718 147.526 226.12 145.463 225.718C143.413 225.322 141.362 224.656 139.318 223.721C137.268 222.774 135.478 222.103 133.955 221.701C130.602 220.634 127.296 219.698 124.035 218.901C120.767 218.092 117.395 217.489 113.906 217.087C113.138 216.95 112.409 216.881 111.719 216.881C111.042 216.881 110.32 216.881 109.558 216.881C102.111 216.881 95.459 218.855 89.6136 222.803C83.7618 226.751 79.7717 232.007 77.6366 238.572C75.3584 245.688 75.5862 252.666 78.3136 259.506C81.054 266.335 85.7732 271.821 92.4777 275.964C97.633 279.04 104.312 280.578 112.526 280.578C123.006 280.578 131.442 278.374 137.834 273.967C140.867 271.809 143.413 270.432 145.463 269.835C147.526 269.239 150 270.478 152.884 273.554C154.394 274.902 155.865 276.348 157.31 277.892C158.768 279.424 160.18 280.991 161.554 282.598C163.376 284.744 163.676 286.821 162.465 288.841C161.248 290.85 159.191 292.72 156.294 294.465C153.411 296.198 150.41 297.701 147.286 298.987C144.174 300.261 141.792 301.23 140.125 301.902C130.837 305.793 121.105 307.732 110.938 307.732C100.901 307.732 91.3191 305.821 82.1931 301.994C73.0801 298.172 64.9566 292.778 57.8225 285.811C51.7298 279.522 47.6941 273.026 45.7153 266.323C43.7495 259.621 43.1116 253.056 43.7885 246.629C44.4785 240.19 45.7413 234.36 47.5639 229.138C51.502 218.413 57.9136 209.834 66.8052 203.407C75.7099 196.98 86.7626 193.032 99.9764 191.563C104.383 191.149 108.49 190.943 112.292 190.943C114.427 190.943 117.538 191.184 121.639 191.654C125.753 192.131 130.16 192.871 134.866 193.881C139.585 194.879 144.07 196.176 148.327 197.783C152.578 199.39 155.839 201.335 158.117 203.613Z" fill="#121212"/>
<path d="M284.185 234.555C285.084 241.257 285.5 248.029 285.435 254.869C285.363 261.698 285.331 267.993 285.331 273.76C285.331 275.091 285.474 277.473 285.774 280.899C286.086 284.313 286.242 287.894 286.242 291.641C286.242 295.394 285.891 298.642 285.201 301.396C284.524 304.139 283.274 305.643 281.451 305.918C279.017 306.182 275.86 306.578 271.974 307.112C268.101 307.646 264.378 307.778 260.804 307.502C257.244 307.244 254.555 306.113 252.733 304.105C250.598 301.689 249.751 298.642 250.207 294.969C250.676 291.285 250.832 288.1 250.676 285.421C250.676 277.909 250.63 270.472 250.546 263.109C250.474 255.735 250.519 248.367 250.676 241.005C250.676 234.027 248.775 228.466 244.974 224.317C241.172 220.157 235.691 217.678 228.544 216.88C228.089 216.743 227.639 216.674 227.19 216.674C226.735 216.674 226.279 216.674 225.81 216.674C221.397 216.674 217.257 217.718 213.391 219.795C209.518 221.861 206.322 224.61 203.809 228.036C201.31 231.45 199.832 235.232 199.383 239.375C198.914 244.333 198.641 249.262 198.576 254.157C198.504 259.058 198.537 263.913 198.68 268.733C198.68 274.093 198.641 279.516 198.576 285.007C198.504 290.505 198.472 295.997 198.472 301.488C198.472 303.497 197.287 304.903 194.93 305.712C192.568 306.509 189.678 306.905 186.26 306.905C182.836 306.905 179.569 306.779 176.444 306.515C173.333 306.24 170.95 306.102 169.284 306.102C167.006 306.102 165.444 305.138 164.597 303.21C163.764 301.27 163.426 298.958 163.582 296.278C163.738 293.586 164.005 290.998 164.389 288.519C164.767 286.04 164.962 284.135 164.962 282.804C165.099 278.919 165.203 275.034 165.274 271.143C165.359 267.258 165.405 263.373 165.405 259.483C165.405 242.744 165.209 226.004 164.832 209.26C164.448 192.503 164.259 175.816 164.259 159.197C164.259 157.057 164.558 155.083 165.17 153.275C165.776 151.456 167.448 150.28 170.195 149.74C173.541 149.086 177.043 148.925 180.688 149.258C184.333 149.58 187.822 149.809 191.155 149.947C195.269 150.085 198.003 151.364 199.357 153.78C200.724 156.185 201.297 159.163 201.075 162.709C200.847 166.261 200.353 169.75 199.591 173.176C198.843 176.591 198.472 179.368 198.472 181.508V191.746C198.472 193.232 199.148 194.512 200.502 195.579C201.42 196.377 202.716 196.773 204.382 196.773C204.538 196.773 204.649 196.773 204.72 196.773C204.805 196.773 204.929 196.773 205.085 196.773C207.513 196.514 209.83 196.216 212.037 195.878C214.237 195.545 216.32 195.235 218.286 194.959C222.243 194.305 226.045 193.777 229.69 193.376C233.335 192.962 236.831 192.756 240.183 192.756C250.506 192.756 258.676 194.701 264.684 198.586C270.685 202.477 275.177 207.601 278.145 213.965C281.113 220.335 283.124 227.198 284.185 234.555Z" fill="#121212"/>
<path d="M398.166 302.292C396.949 303.641 395.048 304.375 392.464 304.496C390.029 304.496 387.673 304.071 385.382 303.21C383.103 302.338 380.864 301.466 378.664 300.593C376.457 299.721 374.062 299.285 371.478 299.285C369.812 299.285 368.132 299.388 366.453 299.584C364.786 299.784 363.263 300.02 361.896 300.295L360.777 300.479C356.363 301.156 352.067 302.028 347.888 303.095C343.703 304.169 339.791 305.242 336.146 306.309C334.479 306.711 332.767 307.044 331.016 307.319C329.259 307.594 327.475 307.732 325.653 307.732C314.561 307.732 305.214 303.847 297.611 296.072C288.947 287.366 285.53 276.647 287.352 263.913C288.114 258.817 290.125 254.267 293.393 250.256C296.674 246.233 300.82 243.151 305.839 241.005C308.403 239.921 311.131 239.146 314.014 238.687C316.911 238.216 319.879 237.78 322.919 237.379C323.681 237.379 324.364 237.35 324.976 237.287C325.581 237.212 326.187 237.103 326.798 236.965L356.663 233.362C360.62 232.828 363.094 231.789 364.083 230.24C365.073 228.696 365.633 227.457 365.776 226.521C366.088 224.243 365.288 222.172 363.38 220.301C361.486 218.419 359.247 217.145 356.663 216.468C351.957 214.861 347.094 214.057 342.082 214.057H341.379C336.673 214.195 332.195 214.803 327.944 215.871C323.687 216.944 319.586 218.212 315.629 219.681C314.411 220.221 312.973 220.484 311.306 220.484C307.954 220.484 304.647 219.515 301.386 217.569C298.119 215.63 295.801 213.317 294.434 210.637C293.823 209.57 293.556 208.663 293.627 207.929C293.692 207.194 293.81 206.632 293.966 206.23C294.884 204.486 296.674 202.913 299.329 201.502C301.985 200.096 304.797 198.896 307.765 197.898C310.734 196.888 313.194 196.119 315.16 195.58C326.108 192.492 337.135 190.943 348.227 190.943C349.281 190.943 350.342 190.943 351.403 190.943C352.477 190.943 353.545 191.012 354.606 191.149C359.931 191.425 365.828 192.337 372.285 193.881C378.742 195.413 384.249 198.323 388.819 202.603C394.13 207.699 397.313 212.795 398.374 217.891C399.585 223.646 400.001 229.637 399.624 235.864C399.259 242.096 399.142 248.161 399.285 254.066C399.285 260.097 399.285 266.157 399.285 272.245C399.285 278.34 399.364 284.336 399.52 290.241C399.52 292.25 399.63 294.39 399.858 296.668C400.08 298.952 399.52 300.823 398.166 302.292ZM365.099 267.724C366.31 265.583 366.694 263.775 366.244 262.306C365.789 260.826 365.333 259.816 364.865 259.277C364.253 258.485 363.302 257.716 362 256.981C360.712 256.235 358.935 255.799 356.663 255.673L354.84 255.466C353.467 255.328 352.061 255.26 350.622 255.26C349.177 255.26 347.628 255.26 345.962 255.26C343.371 255.26 340.247 255.501 336.588 255.971C332.943 256.43 329.454 257.67 326.121 259.69C323.83 261.296 322.379 262.972 321.773 264.717C321.161 266.186 321.096 268.062 321.565 270.34C322.619 274.489 324.67 277.703 327.71 279.981C330.743 282.265 334.388 283.401 338.645 283.401C343.97 283.401 349.216 281.863 354.372 278.787C359.54 275.7 363.12 272.01 365.099 267.724Z" fill="#121212"/>
</g>
<mask id="mask1_201_181" style="mask-type:luminance" maskUnits="userSpaceOnUse" x="418" y="268" width="44" height="39">
<path d="M418.119 268.569H461.334V306.661H418.119V268.569Z" fill="white"/>
</mask>
<g mask="url(#mask1_201_181)">
<mask id="mask2_201_181" style="mask-type:luminance" maskUnits="userSpaceOnUse" x="418" y="268" width="44" height="39">
<path d="M439.723 268.569C427.792 268.569 418.119 277.097 418.119 287.615C418.119 298.134 427.792 306.661 439.723 306.661C451.661 306.661 461.334 298.134 461.334 287.615C461.334 277.097 451.661 268.569 439.723 268.569Z" fill="white"/>
</mask>
<g mask="url(#mask2_201_181)">
<mask id="mask3_201_181" style="mask-type:luminance" maskUnits="userSpaceOnUse" x="417" y="267" width="46" height="41">
<path d="M462.26 267.461H417.268V307.126H462.26V267.461Z" fill="white"/>
</mask>
<g mask="url(#mask3_201_181)">
<mask id="mask4_201_181" style="mask-type:luminance" maskUnits="userSpaceOnUse" x="418" y="268" width="44" height="39">
<path d="M418.119 268.569H461.334V306.661H418.119V268.569Z" fill="white"/>
</mask>
<g mask="url(#mask4_201_181)">
<mask id="mask5_201_181" style="mask-type:luminance" maskUnits="userSpaceOnUse" x="418" y="268" width="44" height="39">
<path d="M439.723 268.569C427.792 268.569 418.119 277.097 418.119 287.615C418.119 298.134 427.792 306.661 439.723 306.661C451.661 306.661 461.334 298.134 461.334 287.615C461.334 277.097 451.661 268.569 439.723 268.569Z" fill="white"/>
</mask>
<g mask="url(#mask5_201_181)">
<path d="M418.119 268.569H461.334V306.661H418.119V268.569Z" fill="#FF8DA1"/>
</g>
</g>
</g>
</g>
</g>
</svg>
